<svg id="Layer_1" data-name="Layer 1" xmlns="http://www.w3.org/2000/svg" viewBox="0 0 42.23 42.21"><defs><style>.cls-1{fill:#fff;fill-rule:evenodd;}</style></defs><title>add</title><path class="cls-1" d="M690.11,1238.6c11-1.7,19.7,7.1,21,16.4,1.5,11.3-6.7,19.8-16.3,21.2-11.3,1.7-20.1-6.9-21.3-16.3-1.3-10.5,5.4-19.5,16.6-21.3Zm-8.2,20.9,8.3.1.1,8.3h4.1v-8.4h8.4l-.1-4.2-8.3-.1-.1-8.3h-4.1v8.4h-8.4l.1,4.2Zm31,2.1a21.08,21.08,0,0,0-33.1-21.2c-15,10.9-9.6,34.3,8.4,37.7a21.05,21.05,0,0,0,24.7-16.5Z" transform="translate(-671.11 -1236.28)"/></svg>