<svg id="Layer_1" data-name="Layer 1" xmlns="http://www.w3.org/2000/svg" viewBox="0 0 35.57 35.69"><defs><style>.cls-1{fill:#fff;fill-rule:evenodd;}</style></defs><title>contact</title><path class="cls-1" d="M677.31,1283.14c4.9-6.7,20.7-7.5,26.6,0-2.3,5.3-12.2,10.1-21.4,5.2C680.71,1287.24,678.11,1284.94,677.31,1283.14Zm12.3-19.2c6.7-1.5,9.1,8.7,2.4,10.3C685.11,1275.84,682.41,1265.54,689.61,1263.94Zm-1.4,11.7,1,.6-1.1.1a18.46,18.46,0,0,0-9.4,3.1,21.9,21.9,0,0,0-2.2,2c-1.6-1.6-1.9-5.5-1.8-8.2a15.38,15.38,0,0,1,2.7-7.6c8.8-12.8,27.7-7.3,29.2,7.4.3,2.8-.1,6.8-1.7,8.4-1.7-1.4-2.1-2.3-5.2-3.6a21.62,21.62,0,0,0-7.3-1.6c8.7-3.4,5.7-13.5-.9-14.1-9.1-.9-10.6,11.3-3.3,13.5Zm-15.2.9a17.78,17.78,0,1,0,15.5-19.9A17.91,17.91,0,0,0,673,1276.54Z" transform="translate(-672.89 -1256.52)"/></svg>