<svg id="Layer_1" data-name="Layer 1" xmlns="http://www.w3.org/2000/svg" viewBox="0 0 34.86 27.5"><defs><style>.cls-1{fill:#fefefe;fill-rule:evenodd;}</style></defs><title>gaming</title><path class="cls-1" d="M737,1291.56c3.6-1.4,5.8-4.3,7.8-3.3,1.3.6,6.9,4.2,7.8,4.2s6.4-3.6,7.8-4.2,2.5.5,4,1.3c1.2.7,2.6,1.4,3.8,2.1v10.7c-.2,1-14.3,8.7-15.6,9.3l-15.5-8.7-.1-11.4Zm26.2,1.4c-3.4,1.4-1.8,6,1.8,4.8,3-1.1,1.1-6-1.8-4.8Zm-2.1,8.7c1.5-3.2-3.2-4.9-4.6-2.4C754.57,1302.56,759.57,1304.86,761.07,1301.66Zm-22.4-2h3.4v3.5h3.5l.1-3.5h3.4l-.1-3.5h-3.4l-.1-3.5h-3.3l-.1,3.5h-3.4l-.1,1.3.1,2.2Zm-3.5,3.8c.4.7,16.5,10.1,17.6,9.9l13.4-7.4c4.6-2.5,3.9-.5,3.7-15.3l-8.6-4.8a48.32,48.32,0,0,0-6.7,3.6c-2.6,1.5-1.4,1.6-6.3-1.2-7.8-4.4-3.7-1.2-13.1,2.3v12.9Z" transform="translate(-735.17 -1285.86)"/></svg>