<svg id="Layer_1" data-name="Layer 1" xmlns="http://www.w3.org/2000/svg" viewBox="0 0 32.22 32.32"><defs><style>.cls-1{fill:#fefefe;fill-rule:evenodd;}</style></defs><title>helpp</title><path class="cls-1" d="M688.36,1240.5c8.7-1.7,15.3,4.6,16.7,11.6,1.7,8.8-4.5,15.4-11.6,16.9-8.7,1.7-15.6-4.7-16.9-11.6-1.5-8.3,3.6-15.3,11.8-16.9Zm-3.1,10.9.4.2c1.3.3,1.9.2,2.6-.4a2.56,2.56,0,0,1,5.1,0c.3,2.9-3.5,2.5-3.8,6.1l-.2.8,2.9.1.1-.6c.6-2.3,2.2-2.5,3.4-4.3,1.3-2.1-.2-4.8-1.3-5.7-3.8-3.5-8.5-1-9.2,3.8Zm4.3,12.7a4.87,4.87,0,0,0,2.4,0C693.66,1260.2,687.86,1260.1,689.56,1264.1Zm-14.6-6.5a16,16,0,0,0,18.6,13,16.14,16.14,0,1,0-18.6-13Z" transform="translate(-674.68 -1238.56)"/></svg>