<svg id="Layer_1" data-name="Layer 1" xmlns="http://www.w3.org/2000/svg" viewBox="0 0 21.34 21.19"><defs><style>.cls-1{fill:#fff;fill-rule:evenodd;}</style></defs><title>history</title><path class="cls-1" d="M679.76,1250.3v-4.6l-1.1-.1v6.3l6.4.1v-1.1h-4.2c2.3-5.9,12.5-7.8,16.6-.7a9.54,9.54,0,0,1-9.3,14.4,8.77,8.77,0,0,1-5.8-3c-1.7-1.9-2.1-3.2-2.5-6.4h-1c-.5,4.6,3.6,9.7,9,10.5a10.6,10.6,0,1,0-6.9-16.9c-.3.4-.3.4-.5.7l-.7.8Zm7.5,6.9,5.1,3.2a7.35,7.35,0,0,0,1.2-1.7,11,11,0,0,0-2.1-1.4,8.78,8.78,0,0,0-2.1-1.2v-6.2h-2.2l.1,7.3Z" transform="translate(-678.66 -1244.63)"/></svg>