<svg id="Layer_1" data-name="Layer 1" xmlns="http://www.w3.org/2000/svg" viewBox="0 0 380.9 84.8"><defs><style>.cls-1{fill:#ee3124;}.cls-2{fill:#fff;}.cls-3{fill:#f7f7f7;}</style></defs><title>logo</title><path class="cls-1" d="M201.4,98.5a15.21,15.21,0,0,0-10.7-10.7c-9.5-2.5-47.5-2.5-47.5-2.5s-38,0-47.5,2.5A15.21,15.21,0,0,0,85,98.5c-2.5,9.5-2.5,29.2-2.5,29.2s0,19.8,2.5,29.2a15.21,15.21,0,0,0,10.7,10.7c9.5,2.5,47.5,2.5,47.5,2.5s38,0,47.5-2.5a15.21,15.21,0,0,0,10.7-10.7c2.5-9.5,2.5-29.2,2.5-29.2S203.9,108,201.4,98.5Z" transform="translate(-82.5 -85.3)"/><polygon class="cls-2" points="48.5 60.7 80.1 42.5 48.5 24.2 48.5 60.7"/><path class="cls-3" d="M258.8,162.6a12.94,12.94,0,0,1-5.1-7.6,50.11,50.11,0,0,1-1.5-13.6v-7.7a47,47,0,0,1,1.7-13.8,14.27,14.27,0,0,1,5.4-7.6,17.65,17.65,0,0,1,9.7-2.4,16.93,16.93,0,0,1,9.5,2.4,13.87,13.87,0,0,1,5.2,7.6,46.11,46.11,0,0,1,1.7,13.8v7.7c0,5.7-.5,10.2-1.6,13.7a13.87,13.87,0,0,1-5.2,7.6c-2.4,1.6-5.7,2.4-9.8,2.4C264.5,165,261.2,164.2,258.8,162.6Zm13.5-8.3c.7-1.7,1-4.6,1-8.5V129.2c0-3.8-.3-6.6-1-8.4a3.59,3.59,0,0,0-6.9,0c-.7,1.8-1,4.6-1,8.4v16.6c0,3.9.3,6.8,1,8.5a3.51,3.51,0,0,0,3.5,2.6A3.66,3.66,0,0,0,272.3,154.3Z" transform="translate(-82.5 -85.3)"/><path class="cls-3" d="M443.3,141.5v2.7a72.44,72.44,0,0,0,.3,7.7,6.4,6.4,0,0,0,1.3,3.7,3.51,3.51,0,0,0,3,1.2,3.75,3.75,0,0,0,3.7-2.1c.7-1.4,1-3.7,1.1-7l10.3.6a10.32,10.32,0,0,1,.1,1.9c0,4.9-1.3,8.6-4,11s-6.5,3.6-11.4,3.6c-5.9,0-10-1.9-12.4-5.6s-3.6-9.4-3.6-17.2v-9.3c0-8,1.2-13.8,3.7-17.5s6.7-5.5,12.6-5.5c4.1,0,7.3.8,9.5,2.3a12.23,12.23,0,0,1,4.6,7,51.2,51.2,0,0,1,1.3,13.2v9.1H443.3Zm1.5-22.4a7.64,7.64,0,0,0-1.2,3.7,73.31,73.31,0,0,0-.3,7.8v3.8h8.8v-3.8a76,76,0,0,0-.3-7.8,6.85,6.85,0,0,0-1.3-3.7,3.61,3.61,0,0,0-2.8-1.1A3.69,3.69,0,0,0,444.8,119.1Z" transform="translate(-82.5 -85.3)"/><path class="cls-3" d="M229.6,140.5,216,91.2h11.9l4.8,22.3q1.8,8.25,2.7,14.1h.3c.4-2.8,1.3-7.4,2.7-14l5-22.4h11.9l-13.8,49.3v23.7H229.7V140.5Z" transform="translate(-82.5 -85.3)"/><path class="cls-3" d="M324,110.9v53.3h-9.4l-1-6.5h-.3c-2.5,4.9-6.4,7.4-11.5,7.4-3.5,0-6.1-1.2-7.8-3.5s-2.5-5.9-2.5-10.9V110.9h12V150a12.19,12.19,0,0,0,.8,5.1,2.7,2.7,0,0,0,2.6,1.5,5.13,5.13,0,0,0,3-1,4.87,4.87,0,0,0,2.1-2.4V110.9Z" transform="translate(-82.5 -85.3)"/><path class="cls-3" d="M385.5,110.9v53.3h-9.4l-1-6.5h-.3c-2.5,4.9-6.4,7.4-11.5,7.4-3.5,0-6.1-1.2-7.8-3.5s-2.5-5.9-2.5-10.9V110.9h12V150a12.19,12.19,0,0,0,.8,5.1,2.7,2.7,0,0,0,2.6,1.5,5.13,5.13,0,0,0,3-1,4.87,4.87,0,0,0,2.1-2.4V110.9Z" transform="translate(-82.5 -85.3)"/><path class="cls-3" d="M356.6,100.9H344.7v63.3H333V101H321.1V91.4h35.5Z" transform="translate(-82.5 -85.3)"/><path class="cls-3" d="M425.2,119.4c-.7-3.4-1.9-5.8-3.5-7.3a9.55,9.55,0,0,0-6.7-2.3,10.78,10.78,0,0,0-6.2,1.9,12.23,12.23,0,0,0-4.4,4.9h-.1V88.5H392.7v75.7h9.9l1.2-5h.3a10.22,10.22,0,0,0,4.2,4.3,13,13,0,0,0,6.2,1.6c4.1,0,7-1.9,8.9-5.6s2.9-9.6,2.9-17.5v-8.4A72.61,72.61,0,0,0,425.2,119.4Zm-11,21.7a69.21,69.21,0,0,1-.5,9.1,10.17,10.17,0,0,1-1.6,4.7,3.89,3.89,0,0,1-3,1.4,5,5,0,0,1-2.7-.7,5.78,5.78,0,0,1-2-2.1V123.3a8.18,8.18,0,0,1,2.1-3.6,4.85,4.85,0,0,1,3.2-1.4,3.24,3.24,0,0,1,2.8,1.4,11.43,11.43,0,0,1,1.4,4.8,80.61,80.61,0,0,1,.4,9.6v7Z" transform="translate(-82.5 -85.3)"/></svg>