<svg id="Layer_1" data-name="Layer 1" xmlns="http://www.w3.org/2000/svg" viewBox="0 0 43.5 43.83"><defs><style>.cls-1{fill:#fff;fill-rule:evenodd;}</style></defs><title>news</title><path class="cls-1" d="M1721.06,364.68h39v29.1h-9.7v9.7h-28.9v-1.4l-.4-37.4Zm31.8,41.1c.6,0,.4.2.4-.4.6,0,.4.2.4-.4.6,0,.4.2.4-.4.6,0,.4.2.4-.4.6,0,.4.2.4-.4.6,0,.4.2.4-.4.6,0,.4.2.4-.4.6,0,.4.2.4-.4.6,0,.4.2.4-.4.6,0,.4.2.4-.4.6,0,.4.2.4-.4.6,0,.4.2.4-.4.6,0,.4.2.4-.4.6,0,.4.2.4-.4.6,0,.4.2.4-.4.6,0,.4.2.4-.4.6,0,.4.2.4-.4.6,0,.4.2.4-.4.6,0,.4.2.4-.4.6,0,.4.2.4-.4.6,0,.4.2.4-.4.6,0,.4.2.4-.4.6,0,.4.2.4-.4.6,0,.4.2.4-.4l.4-.4V362h-43.5v43.5l33.5.3Zm2.4-22.1v-4.2h-11.7v4.2Zm-11.9,7.3,12.1.2v-4.9h-11.9l-.2,4.7Zm-14.6-9.3c.4-.4.2-.4,1.4-.6h3.8c2.6,0,4-.4,4.6.8l-.2,14.2h-9.5c-.7-1.2-.3-13.6-.1-14.4Zm-2.2,16.8,14.4-.2v-19.2h-14.2c-.6,3-.4,15.8-.2,19.4Zm.2-24.1h28.3v-4.9h-28.3Z" transform="translate(-1719.36 -361.98)"/></svg>