<svg id="Layer_1" data-name="Layer 1" xmlns="http://www.w3.org/2000/svg" viewBox="0 0 228.42 53.04"><defs><style>.cls-1,.cls-2{fill:#fff;}.cls-1{fill-rule:evenodd;}</style></defs><title>report</title><path class="cls-1" d="M556.12,1314.93c6.3-1.9,8.5,7.6,2.6,9.3S549.72,1316.83,556.12,1314.93Zm7.8-13.3H572v3.3h-8.1Zm0,4.9h9.8V1300h-11.4c0,2.7.3,13.3-.2,15.1-.3-.8-2.1-1.8-3.8-2a6.47,6.47,0,0,0-6.7,9.3c2.7,5.7,12.3,4.8,12.3-3.9v-12Z" transform="translate(-536 -1284.96)"/><rect class="cls-2" y="4.04" width="52" height="49"/><path class="cls-1" d="M754.42,1288.86l.3.6h7.6c1.1.2.4-.2.7.4v10.4c-9,0-8,1-8.5-3h-11.4v-10.7l11,.1.3,2.2Zm-11.4,10h10.1c.1.6.3,2.8,1,3h10.3v-13.8h-8.6c-.1-.7-.2-2.8-.9-3.1l-13.4.1v27.4l1.5-.1v-13.5Z" transform="translate(-536 -1284.96)"/></svg>