<svg id="Layer_1" data-name="Layer 1" xmlns="http://www.w3.org/2000/svg" viewBox="0 0 41.15 41.7"><defs><style>.cls-1{fill:#fff;fill-rule:evenodd;}</style></defs><title>search</title><path class="cls-1" d="M673.53,888.63l-11-10.63a1.66,1.66,0,0,1-.31-1.93c2.18-4.25,3.72-6.21,3.39-11.52-.92-14.89-18.9-19.13-27.67-10.59-13.07,12.73.84,35.94,20.89,25a1.65,1.65,0,0,1,2,.26l12.23,12A1.64,1.64,0,0,0,673.53,888.63ZM652,879.3c-17.26,3.38-24.87-23.63-4.53-27.38C664.34,848.82,670.34,875.71,652,879.3Z" transform="translate(-632.87 -849.6)"/></svg>