<svg id="Layer_1" data-name="Layer 1" xmlns="http://www.w3.org/2000/svg" viewBox="0 0 31.21 31.9"><defs><style>.cls-1{fill:none;stroke:#fefefe;stroke-miterlimit:10;fill-rule:evenodd;}</style></defs><title>settings</title><path class="cls-1" d="M570.71,908.05l3.31-3-3-5.51c-5.28,1-3,1.91-6.21.24-1.72-.89-1.44-.25-1.91-2.3-.27-1.16-.42-2.76-1.11-3h-5.43c-.68.46-.55.61-.78,1.57-.9,3.85-.44,2.71-2.4,3.78-2.94,1.6-.76.71-6-.29l-2.95,5.5,3.22,2.9,0,3.73-3.37,3.11,3.1,5.5a32.85,32.85,0,0,0,3.29-.91c2-.58,1.37-.14,2.87.72s1.4.15,1.9,2.32c.26,1.15.41,2.75,1.1,3h5.43c.68-.47.56-.62.78-1.58.93-4,.45-2.62,2.38-3.8,2.85-1.76.63-.7,6,.28l3-5.55-3.23-3.07Zm-10.5,5.59a3.83,3.83,0,1,1-2-7.38C563,904.86,564.79,912.4,560.21,913.64Z" transform="translate(-543.44 -894.03)"/></svg>