<svg id="Layer_1" data-name="Layer 1" xmlns="http://www.w3.org/2000/svg" viewBox="0 0 31.74 39.26"><defs><style>.cls-1{fill:none;stroke:#fff;stroke-miterlimit:10;fill-rule:evenodd;}</style></defs><title>shorts</title><path class="cls-1" d="M564.3,1269.19l1.5-1.2c1.8-1.1,2.8-1.4,4-3.7a6.57,6.57,0,0,0-.9-7.7c-4.5-5-9.5-1.6-14.3,1-2.9,1.5-11.7,5.9-12.9,7.4-2.3,2.7-2.5,7.9,1.1,10.5a6.8,6.8,0,0,0,1.7.9l1.8,1.2c-6.9,2.2-7.7,8.2-4.7,12,4.3,5.4,9.8,1.4,14.4-1,2.6-1.4,11.5-5.7,12.8-7.2C572.9,1276.69,569.8,1270.59,564.3,1269.19Zm-12.6-1.1,8.3,4.4c.9.7.3.1.8.8l-9.4,4.8Z" transform="translate(-539.44 -1253.52)"/></svg>
