<svg id="Layer_1" data-name="Layer 1" xmlns="http://www.w3.org/2000/svg" viewBox="0 0 33.3 36.8"><defs><style>.cls-1{fill:#fff;fill-rule:evenodd;}</style></defs><title>sporrt</title><path class="cls-1" d="M685.26,1287.14c.8-.6,4.5-2.7,5.5-2.7s4.7,2.2,5.5,2.7l.1,2.4-11.1.1v-2.5Zm-3.7-15.1-.1-15.6h18.4l-.1,15.6c-.8,10.9-17.2,11.1-18.2,0Zm20.8-.5-.4-1.2c-.1-2,.2-5.7,0-8.4l3.6.1v8Zm-22.6-8.9-.2,3.6V1262l-3.6.1v8l3.2,1.5.6-9Zm-.3-2.6h-5.3l-.1,11.2a33.08,33.08,0,0,1,4.7,2.2c2.5,1.2.6.7,2.8,4,2,2.8,4.3,4.1,8.7,4.9l-6.7,3.7v5.5l14.3-.1-.2-5.6-6.6-3.5c5.1-1,8.3-2.8,9.9-7,.6-1.6.1-1.1,1.7-1.8a33.08,33.08,0,0,1,4.7-2.2v-11.2H702c-.5-.9-.3-1.6-.3-2.7a23.48,23.48,0,0,1,.1-2.7h-22.1c.2,1.5.4,4.4-.2,5.3Z" transform="translate(-674.06 -1254.74)"/></svg>