<svg id="Layer_1" data-name="Layer 1" xmlns="http://www.w3.org/2000/svg" viewBox="0 0 33.47 41.44"><defs><style>.cls-1{fill:#fff;fill-rule:evenodd;}</style></defs><title>trending#</title><path class="cls-1" d="M603.68,1291.8l.2,6.4c2.1-1,9.2-6.2,12.4-8,.3,4.3.1,9.7.1,14.1,0,7.3.4,15.5-8.6,19.9-16,7.7-29.2-16.8-13.4-27.4A63.18,63.18,0,0,1,603.68,1291.8Zm2.2,11.1c-1.5.5-7.8,4.7-9.5,5.9a7.06,7.06,0,0,0-1,10.5c3.4,3.6,8,2.1,9.9-1.7,1.1-2.4.7-11.4.6-14.7Zm.6-8.9c-.6.4.8.4-.7.3l-.1-6-11.1,5.8c-13.1,7.6-12,25.1-.3,31.6a16.1,16.1,0,0,0,13.9.5,18.05,18.05,0,0,0,8.4-8.2c3-6.3,1.8-23.7,1.7-31.9l-11.8,7.9Z" transform="translate(-585.13 -1286.1)"/></svg>