<svg id="Layer_1" data-name="Layer 1" xmlns="http://www.w3.org/2000/svg" viewBox="0 0 176 124"><defs><style>.cls-1{fill:#ee3124;}.cls-2{fill:#fff;}</style></defs><title>you-tube-2017-icon-seeklogo.com-4</title><path class="cls-1" d="M180.3,53.4a22.27,22.27,0,0,0-15.6-15.7C151,34,96,34,96,34s-55,0-68.8,3.7A22.1,22.1,0,0,0,11.6,53.4C8,67.2,8,96,8,96s0,28.8,3.7,42.6a22.27,22.27,0,0,0,15.6,15.7C41,158,96,158,96,158s55,0,68.8-3.7a22.1,22.1,0,0,0,15.6-15.7C184,124.8,184,96,184,96S184,67.2,180.3,53.4Z" transform="translate(-8 -34)"/><polygon class="cls-2" points="70 88.2 70 35.8 116 62 70 88.2"/></svg>